<svg xmlns="http://www.w3.org/2000/svg" viewBox="0 0 1440 900" width="1440" height="900">
  <!-- Background -->
  <rect width="1440" height="900" fill="#0d1117"/>
  
  <!-- Header -->
  <rect x="0" y="0" width="1440" height="60" fill="#161b22" stroke="#30363d" stroke-width="1"/>
  
  <!-- Logo -->
  <circle cx="40" cy="30" r="12" stroke="#58a6ff" stroke-width="2" fill="none"/>
  <circle cx="40" cy="30" r="3" fill="#58a6ff"/>
  <path d="M40 18v4M40 38v4M28 30h4M48 30h4" stroke="#58a6ff" stroke-width="2" stroke-linecap="round"/>
  
  <!-- Title -->
  <text x="70" y="35" fill="#f0f6fc" font-family="Inter, sans-serif" font-size="18" font-weight="600">World Events Monitor</text>
  
  <!-- Search Bar -->
  <rect x="400" y="12" width="400" height="36" rx="8" fill="#21262d" stroke="#30363d" stroke-width="1"/>
  <text x="425" y="35" fill="#6e7681" font-family="Inter, sans-serif" font-size="14">Search location, event, or coordinates...</text>
  <rect x="760" y="18" width="28" height="24" rx="4" fill="#30363d"/>
  <text x="768" y="34" fill="#8b949e" font-family="JetBrains Mono, monospace" font-size="11">F</text>
  
  <!-- Header Icons -->
  <rect x="1320" y="12" width="36" height="36" rx="6" fill="#21262d"/>
  <text x="1330" y="35" fill="#8b949e" font-size="20">🔔</text>
  <circle cx="1350" cy="20" r="8" fill="#da3633"/>
  <text x="1346" y="23" fill="white" font-size="10" font-weight="600">3</text>
  
  <rect x="1368" y="12" width="36" height="36" rx="6" fill="#21262d"/>
  <text x="1378" y="35" fill="#8b949e" font-size="20">🌙</text>
  
  <!-- Left Panel -->
  <rect x="0" y="61" width="360" height="839" fill="#161b22" stroke="#30363d" stroke-width="1"/>
  
  <!-- Panel Header -->
  <rect x="0" y="61" width="360" height="50" fill="#161b22" stroke="#30363d" stroke-width="1"/>
  <text x="20" y="92" fill="#f0f6fc" font-family="Inter, sans-serif" font-size="16" font-weight="600">Layers</text>
  <text x="312" y="92" fill="#58a6ff" font-family="Inter, sans-serif" font-size="14">Reset</text>
  
  <!-- Layer Group: Security -->
  <text x="20" y="140" fill="#6e7681" font-family="Inter, sans-serif" font-size="11" font-weight="600" letter-spacing="0.5">SECURITY</text>
  
  <!-- Layer Items -->
  <rect x="20" y="155" width="320" height="44" rx="6" fill="#21262d" stroke="#30363d" stroke-width="1"/>
  <rect x="30" y="167" width="20" height="20" rx="4" fill="#58a6ff"/>
  <text x="36" y="181" fill="white" font-size="12">✓</text>
  <rect x="58" y="166" width="28" height="28" rx="4" fill="#ff6b6b"/>
  <text x="98" y="187" fill="#f0f6fc" font-family="Inter, sans-serif" font-size="14">Armed Conflicts</text>
  <rect x="280" y="170" width="50" height="4" rx="2" fill="#30363d"/>
  <circle cx="320" cy="172" r="6" fill="#58a6ff"/>
  
  <rect x="20" y="207" width="320" height="44" rx="6" fill="#21262d" stroke="#30363d" stroke-width="1"/>
  <rect x="30" y="219" width="20" height="20" rx="4" fill="#21262d" stroke="#58a6ff" stroke-width="2"/>
  <rect x="58" y="218" width="28" height="28" rx="4" fill="#ff9f43"/>
  <text x="98" y="239" fill="#f0f6fc" font-family="Inter, sans-serif" font-size="14">Military Activity</text>
  
  <rect x="20" y="259" width="320" height="44" rx="6" fill="#21262d" stroke="#30363d" stroke-width="1"/>
  <rect x="30" y="271" width="20" height="20" rx="4" fill="#21262d" stroke="#58a6ff" stroke-width="2"/>
  <rect x="58" y="270" width="28" height="28" rx="4" fill="#feca57"/>
  <text x="98" y="291" fill="#f0f6fc" font-family="Inter, sans-serif" font-size="14">Sanctions</text>
  
  <!-- Natural Events -->
  <text x="20" y="340" fill="#6e7681" font-family="Inter, sans-serif" font-size="11" font-weight="600" letter-spacing="0.5">NATURAL EVENTS</text>
  
  <rect x="20" y="355" width="320" height="44" rx="6" fill="#21262d" stroke="#30363d" stroke-width="1"/>
  <rect x="30" y="367" width="20" height="20" rx="4" fill="#58a6ff"/>
  <text x="36" y="381" fill="white" font-size="12">✓</text>
  <rect x="58" y="366" width="28" height="28" rx="4" fill="#ff6b6b"/>
  <text x="98" y="387" fill="#f0f6fc" font-family="Inter, sans-serif" font-size="14">Wildfires</text>
  
  <rect x="20" y="407" width="320" height="44" rx="6" fill="#21262d" stroke="#30363d" stroke-width="1"/>
  <rect x="30" y="419" width="20" height="20" rx="4" fill="#58a6ff"/>
  <text x="36" y="433" fill="white" font-size="12">✓</text>
  <rect x="58" y="418" width="28" height="28" rx="4" fill="#48dbfb"/>
  <text x="98" y="439" fill="#f0f6fc" font-family="Inter, sans-serif" font-size="14">Earthquakes</text>
  
  <rect x="20" y="459" width="320" height="44" rx="6" fill="#21262d" stroke="#30363d" stroke-width="1"/>
  <rect x="30" y="471" width="20" height="20" rx="4" fill="#21262d" stroke="#58a6ff" stroke-width="2"/>
  <rect x="58" y="470" width="28" height="28" rx="4" fill="#54a0ff"/>
  <text x="98" y="491" fill="#f0f6fc" font-family="Inter, sans-serif" font-size="14">Severe Weather</text>
  
  <!-- Map Area -->
  <rect x="361" y="61" width="718" height="839" fill="#0d1117"/>
  
  <!-- Map Grid Pattern -->
  <defs>
    <pattern id="grid" width="50" height="50" patternUnits="userSpaceOnUse">
      <path d="M 50 0 L 0 0 0 50" fill="none" stroke="#21262d" stroke-width="0.5"/>
    </pattern>
  </defs>
  <rect x="361" y="61" width="718" height="839" fill="url(#grid)"/>
  
  <!-- Map Markers -->
  <circle cx="500" cy="300" r="12" fill="#ff6b6b" stroke="white" stroke-width="2"/>
  <circle cx="500" cy="300" r="8" fill="none" stroke="#ff6b6b" stroke-width="2" opacity="0.5">
    <animate attributeName="r" values="8;20;8" dur="2s" repeatCount="indefinite"/>
    <animate attributeName="opacity" values="0.5;0;0.5" dur="2s" repeatCount="indefinite"/>
  </circle>
  
  <circle cx="800" cy="400" r="10" fill="#ff9f43" stroke="white" stroke-width="2"/>
  <circle cx="650" cy="200" r="10" fill="#48dbfb" stroke="white" stroke-width="2"/>
  <circle cx="550" cy="500" r="10" fill="#ff6b6b" stroke="white" stroke-width="2"/>
  <circle cx="750" cy="350" r="10" fill="#54a0ff" stroke="white" stroke-width="2"/>
  
  <!-- Cluster Marker -->
  <circle cx="700" cy="280" r="28" fill="rgba(88, 166, 255, 0.8)" stroke="white" stroke-width="2"/>
  <text x="700" y="286" fill="white" font-family="Inter, sans-serif" font-size="14" font-weight="600" text-anchor="middle">12</text>
  
  <!-- Map Controls -->
  <rect x="1020" y="80" width="40" height="120" rx="8" fill="#161b22" stroke="#30363d" stroke-width="1"/>
  <text x="1040" y="110" fill="#f0f6fc" font-size="24" text-anchor="middle">+</text>
  <line x1="1025" y1="125" x2="1055" y2="125" stroke="#30363d" stroke-width="1"/>
  <text x="1040" y="155" fill="#f0f6fc" font-size="24" text-anchor="middle">-</text>
  <line x1="1025" y1="170" x2="1055" y2="170" stroke="#30363d" stroke-width="1"/>
  <circle cx="1040" cy="185" r="10" stroke="#8b949e" stroke-width="1.5" fill="none"/>
  
  <!-- Time Controls -->
  <rect x="470" y="780" width="500" height="100" rx="12" fill="#161b22" stroke="#30363d" stroke-width="1"/>
  
  <text x="500" y="810" fill="#8b949e" font-family="Inter, sans-serif" font-size="12" font-weight="600">TIME RANGE</text>
  
  <rect x="750" y="800" width="50" height="24" rx="6" fill="#58a6ff"/>
  <text x="775" y="816" fill="white" font-family="Inter, sans-serif" font-size="11" font-weight="500" text-anchor="middle">24h</text>
  
  <rect x="810" y="800" width="50" height="24" rx="6" fill="#21262d"/>
  <text x="835" y="816" fill="#8b949e" font-family="Inter, sans-serif" font-size="11" font-weight="500" text-anchor="middle">7d</text>
  
  <rect x="870" y="800" width="50" height="24" rx="6" fill="#21262d"/>
  <text x="895" y="816" fill="#8b949e" font-family="Inter, sans-serif" font-size="11" font-weight="500" text-anchor="middle">30d</text>
  
  <!-- Play Button -->
  <rect x="500" y="840" width="36" height="36" rx="6" fill="#21262d"/>
  <path d="M512 852l10 6-10 6v-12z" fill="#f0f6fc"/>
  
  <!-- Time Slider -->
  <rect x="550" y="855" width="320" height="4" rx="2" fill="#30363d"/>
  <circle cx="850" cy="857" r="8" fill="#58a6ff" stroke="white" stroke-width="2"/>
  <text x="550" y="878" fill="#6e7681" font-size="11">-24h</text>
  <text x="720" y="878" fill="#6e7681" font-size="11">-12h</text>
  <text x="880" y="878" fill="#6e7681" font-size="11">Now</text>
  
  <text x="920" y="862" fill="#f0f6fc" font-family="JetBrains Mono, monospace" font-size="14" font-weight="500">Now</text>
  
  <!-- Legend -->
  <rect x="380" y="750" width="140" height="130" rx="8" fill="#161b22" stroke="#30363d" stroke-width="1"/>
  <text x="395" y="775" fill="#6e7681" font-family="Inter, sans-serif" font-size="11" font-weight="600">EVENT TYPES</text>
  
  <circle cx="405" cy="795" r="6" fill="#ff6b6b" stroke="white" stroke-width="1.5"/>
  <text x="420" y="799" fill="#8b949e" font-size="11">Conflict</text>
  
  <circle cx="405" cy="815" r="6" fill="#ff9f43" stroke="white" stroke-width="1.5"/>
  <text x="420" y="819" fill="#8b949e" font-size="11">Military</text>
  
  <circle cx="405" cy="835" r="6" fill="#ff6b6b" stroke="white" stroke-width="1.5"/>
  <text x="420" y="839" fill="#8b949e" font-size="11">Wildfire</text>
  
  <circle cx="405" cy="855" r="6" fill="#48dbfb" stroke="white" stroke-width="1.5"/>
  <text x="420" y="859" fill="#8b949e" font-size="11">Earthquake</text>
  
  <circle cx="405" cy="870" r="6" fill="#54a0ff" stroke="white" stroke-width="1.5"/>
  <text x="420" y="874" fill="#8b949e" font-size="11">Weather</text>
  
  <!-- Right Panel -->
  <rect x="1080" y="61" width="360" height="839" fill="#161b22" stroke="#30363d" stroke-width="1"/>
  
  <!-- Panel Header -->
  <rect x="1080" y="61" width="360" height="50" fill="#161b22" stroke="#30363d" stroke-width="1"/>
  <text x="1100" y="92" fill="#f0f6fc" font-family="Inter, sans-serif" font-size="16" font-weight="600">Recent Events</text>
  <rect x="1380" y="75" width="40" height="24" rx="6" fill="#21262d"/>
  <text x="1400" y="91" fill="#8b949e" font-family="Inter, sans-serif" font-size="12" font-weight="600" text-anchor="middle">47</text>
  
  <!-- Filters -->
  <rect x="1080" y="111" width="360" height="50" fill="#161b22" stroke="#30363d" stroke-width="1"/>
  <rect x="1100" y="122" width="120" height="28" rx="6" fill="#21262d" stroke="#30363d" stroke-width="1"/>
  <text x="1115" y="140" fill="#f0f6fc" font-family="Inter, sans-serif" font-size="13">Newest First</text>
  <text x="1195" y="140" fill="#8b949e" font-size="12">▼</text>
  
  <!-- Event Cards -->
  <!-- Card 1 -->
  <rect x="1100" y="175" width="320" height="100" rx="8" fill="#21262d" stroke="#30363d" stroke-width="1"/>
  <rect x="1115" y="190" width="40" height="40" rx="6" fill="#ff6b6b"/>
  <text x="1165" y="212" fill="#f0f6fc" font-family="Inter, sans-serif" font-size="14" font-weight="500">M6.2 Earthquake - Japan</text>
  <rect x="1340" y="195" width="60" height="20" rx="4" fill="#d29922"/>
  <text x="1370" y="209" fill="white" font-size="10" font-weight="600" text-anchor="middle">STRONG</text>
  <text x="1165" y="235" fill="#8b949e" font-size="12">Near Tokyo, Japan</text>
  <text x="1165" y="258" fill="#6e7681" font-size="11">2h ago • Source: USGS</text>
  
  <!-- Card 2 -->
  <rect x="1100" y="285" width="320" height="100" rx="8" fill="#21262d" stroke="#30363d" stroke-width="1"/>
  <rect x="1115" y="300" width="40" height="40" rx="6" fill="#ff6b6b"/>
  <text x="1165" y="322" fill="#f0f6fc" font-family="Inter, sans-serif" font-size="14" font-weight="500">Wildfire spreading - California</text>
  <rect x="1340" y="305" width="50" height="20" rx="4" fill="#da3633"/>
  <text x="1365" y="319" fill="white" font-size="10" font-weight="600" text-anchor="middle">HIGH</text>
  <text x="1165" y="345" fill="#8b949e" font-size="12">Northern California, USA</text>
  <text x="1165" y="368" fill="#6e7681" font-size="11">4h ago • Source: CalFire</text>
  
  <!-- Card 3 -->
  <rect x="1100" y="395" width="320" height="100" rx="8" fill="#21262d" stroke="#30363d" stroke-width="1"/>
  <rect x="1115" y="410" width="40" height="40" rx="6" fill="#ff9f43"/>
  <text x="1165" y="432" fill="#f0f6fc" font-family="Inter, sans-serif" font-size="14" font-weight="500">Naval exercises - Baltic Sea</text>
  <rect x="1340" y="415" width="60" height="20" rx="4" fill="#6e7681"/>
  <text x="1370" y="429" fill="white" font-size="10" font-weight="600" text-anchor="middle">MEDIUM</text>
  <text x="1165" y="455" fill="#8b949e" font-size="12">Baltic Sea Region</text>
  <text x="1165" y="478" fill="#6e7681" font-size="11">6h ago • Source: NATO</text>
  
  <!-- Card 4 -->
  <rect x="1100" y="505" width="320" height="100" rx="8" fill="#21262d" stroke="#30363d" stroke-width="1"/>
  <rect x="1115" y="520" width="40" height="40" rx="6" fill="#48dbfb"/>
  <text x="1165" y="542" fill="#f0f6fc" font-family="Inter, sans-serif" font-size="14" font-weight="500">Flood warning - Southeast Asia</text>
  <rect x="1340" y="525" width="60" height="20" rx="4" fill="#d29922"/>
  <text x="1370" y="539" fill="white" font-size="10" font-weight="600" text-anchor="middle">WARNING</text>
  <text x="1165" y="565" fill="#8b949e" font-size="12">Vietnam, Mekong Delta</text>
  <text x="1165" y="588" fill="#6e7681" font-size="11">8h ago • Source: GDACS</text>
  
  <!-- Detail Overlay (Preview) -->
  <rect x="470" y="200" width="500" height="500" rx="16" fill="#161b22" stroke="#30363d" stroke-width="1" opacity="0.98"/>
  <rect x="920" y="220" width="32" height="32" rx="6" fill="#21262d"/>
  <text x="936" y="242" fill="#8b949e" font-size="20">×</text>
  
  <rect x="500" y="230" width="56" height="56" rx="12" fill="#ff6b6b"/>
  <text x="580" y="260" fill="#f0f6fc" font-family="Inter, sans-serif" font-size="24" font-weight="600">M6.2 Earthquake - Japan</text>
  <text x="580" y="285" fill="#da3633" font-size="14">STRONG</text>
  <text x="645" y="285" fill="#8b949e" font-size="14">Near Tokyo, Japan</text>
  <text x="755" y="285" fill="#8b949e" font-size="14">Jan 7, 2024 14:32</text>
  
  <text x="500" y="330" fill="#6e7681" font-family="Inter, sans-serif" font-size="12" font-weight="600" letter-spacing="0.5">DESCRIPTION</text>
  <rect x="500" y="345" width="440" height="60" rx="0" fill="#161b22"/>
  <text x="500" y="365" fill="#8b949e" font-family="Inter, sans-serif" font-size="14">A magnitude 6.2 earthquake occurred 50km east of</text>
  <text x="500" y="385" fill="#8b949e" font-family="Inter, sans-serif" font-size="14">Tokyo at a depth of 45km. Local authorities have</text>
  <text x="500" y="405" fill="#8b949e" font-family="Inter, sans-serif" font-size="14">issued safety advisories. No tsunami warning issued.</text>
  
  <text x="500" y="450" fill="#6e7681" font-family="Inter, sans-serif" font-size="12" font-weight="600" letter-spacing="0.5">DETAILS</text>
  <rect x="500" y="465" width="100" height="60" rx="8" fill="#21262d"/>
  <text x="510" y="485" fill="#6e7681" font-size="11">CONFIDENCE</text>
  <text x="510" y="510" fill="#f0f6fc" font-family="JetBrains Mono, monospace" font-size="18" font-weight="600">95%</text>
  
  <rect x="615" y="465" width="100" height="60" rx="8" fill="#21262d"/>
  <text x="625" y="485" fill="#6e7681" font-size="11">TYPE</text>
  <text x="625" y="510" fill="#f0f6fc" font-family="Inter, sans-serif" font-size="18" font-weight="600">Earthquake</text>
  
  <rect x="730" y="465" width="100" height="60" rx="8" fill="#21262d"/>
  <text x="740" y="485" fill="#6e7681" font-size="11">DEPTH</text>
  <text x="740" y="510" fill="#f0f6fc" font-family="JetBrains Mono, monospace" font-size="18" font-weight="600">45km</text>
  
  <rect x="500" y="560" width="120" height="40" rx="6" fill="#58a6ff"/>
  <text x="560" y="585" fill="white" font-family="Inter, sans-serif" font-size="14" font-weight="500" text-anchor="middle">View Source</text>
  
  <rect x="635" y="560" width="100" height="40" rx="6" fill="#21262d" stroke="#30363d" stroke-width="1"/>
  <text x="685" y="585" fill="#f0f6fc" font-family="Inter, sans-serif" font-size="14" font-weight="500" text-anchor="middle">Close</text>
  
  <!-- Labels -->
  <text x="720" y="50" fill="#58a6ff" font-family="Inter, sans-serif" font-size="24" font-weight="700" text-anchor="middle">DESKTOP WIREFRAME</text>
  <text x="720" y="75" fill="#6e7681" font-family="Inter, sans-serif" font-size="14" text-anchor="middle">1440 × 900 viewport</text>
</svg>
